<?xml version="1.0" encoding="UTF-8"?>
<!DOCTYPE svg PUBLIC "-//W3C//DTD SVG 1.1//EN" "http://www.w3.org/Graphics/SVG/1.1/DTD/svg11.dtd">
<!-- Creator: CorelDRAW 2021.5 -->
<svg xmlns="http://www.w3.org/2000/svg" xml:space="preserve" width="205.13mm" height="55.0532mm" version="1.1" style="shape-rendering:geometricPrecision; text-rendering:geometricPrecision; image-rendering:optimizeQuality; fill-rule:evenodd; clip-rule:evenodd"
viewBox="0 0 20512.96 5505.32"
 xmlns:xlink="http://www.w3.org/1999/xlink"
 xmlns:xodm="http://www.corel.com/coreldraw/odm/2003">
 <defs>
  <style type="text/css">
   <![CDATA[
    .fil0 {fill:#252A31;fill-rule:nonzero}
   ]]>
  </style>
 </defs>
 <g id="Layer_x0020_1">
  <metadata id="CorelCorpID_0Corel-Layer"/>
  <g id="_2230263595440">
   <g>
    <path class="fil0" d="M20512.96 355.57c0,98.11 -39.79,186.99 -104.12,251.31 -64.3,64.29 -153.17,104.08 -251.35,104.08 -98.12,0 -186.97,-39.79 -251.28,-104.1 -64.31,-64.32 -104.1,-153.18 -104.1,-251.29 0,-98.15 39.79,-187.03 104.08,-251.36 64.35,-64.38 153.2,-104.21 251.3,-104.21 98.15,0 187.02,39.82 251.37,104.19 64.32,64.34 104.1,153.22 104.1,251.38zm-129.06 226.37c57.94,-57.93 93.78,-137.99 93.78,-226.37 0,-88.52 -35.83,-168.64 -93.76,-226.58 -57.88,-57.9 -137.93,-93.71 -226.43,-93.71 -88.45,0 -168.49,35.83 -226.36,93.73 -57.91,57.95 -93.74,138.06 -93.74,226.56 0,88.38 35.84,168.42 93.76,226.35 57.91,57.91 137.95,93.76 226.34,93.76 88.45,0 168.49,-35.83 226.41,-93.74z"/>
    <path class="fil0" d="M20088.06 320.56l54.75 0c35.37,0 57.59,-1.62 66.46,-4.49 8.79,-3.16 15.65,-8.22 20.71,-15.55 5.05,-7.35 7.43,-16.52 7.43,-27.57 0,-12.31 -3.24,-22.23 -9.81,-29.74 -6.6,-7.66 -15.93,-12.33 -27.85,-14.42 -6.03,-0.86 -24.03,-1.35 -53.99,-1.35l-57.7 0 0 93.12zm-74.02 211.34l0 -366.34 155.65 0c39.2,0 67.64,3.32 85.38,9.92 17.74,6.57 31.96,18.3 42.53,35.2 10.68,16.57 16.03,35.96 16.03,57.59 0,27.47 -8.03,50.26 -24.22,68.21 -16.12,17.82 -40.34,29.09 -72.41,33.77 15.93,9.33 29.2,19.55 39.58,30.61 10.41,11.35 24.42,31.2 42.07,59.69l44.72 71.35 -88.41 0 -53.5 -79.83c-18.98,-28.42 -31.96,-46.26 -38.91,-53.7 -7.06,-7.52 -14.49,-12.38 -22.33,-15.25 -7.82,-2.78 -20.23,-4.11 -37.21,-4.11l-14.95 0 0 152.89 -74.02 0z"/>
    <path class="fil0" d="M10507.33 1675.24l335.07 -841.63 326.87 841.63 -661.94 0zm612.92 -1389.7l-563.9 0 -874.43 2239.52 531.17 0 163.49 -400.2 947.97 0 163.38 400.2 523.08 0 -890.76 -2239.52z"/>
    <path class="fil0" d="M18695.2 2108.64c-4.38,1.14 -604.22,0 -604.22,0l0 -1404.65 604.22 -10.3c648.89,108.07 796.73,1183.27 0,1414.95zm33.2 -1823.47l-1103.15 0 0 2239.62c0,0 1095.23,2 1103.15,0 1454.64,-367.7 1185,-2068.02 0,-2239.62z"/>
    <polygon class="fil0" points="12754.63,285.52 13212.26,285.52 13212.26,1405.57 14029.48,285.52 14576.97,285.52 13776.14,1397.36 14642.4,2525.04 14086.71,2525.04 13506.5,1773.36 13212.26,2116.54 13212.26,2525.04 12754.63,2525.04 "/>
    <polygon class="fil0" points="14773.18,285.57 15230.83,285.57 15230.83,2525.09 14773.18,2525.09 "/>
    <polygon class="fil0" points="15418.77,285.52 15418.77,2525.04 15917.3,2525.04 15917.3,1070.51 16979.66,2525.04 17437.29,2525.04 17437.29,285.52 16979.66,285.52 16979.66,1732.45 15917.3,285.52 "/>
    <polygon class="fil0" points="6126.91,302.01 4590.62,302.01 4590.62,2541.64 6200.45,2541.64 6200.45,2141.14 5048.17,2141.14 5048.17,1626.47 5857.27,1626.47 5857.27,1209.64 5048.17,1209.64 5048.17,711.11 6126.91,711.11 "/>
    <polygon class="fil0" points="2408.72,302.01 2408.72,2541.64 2907.28,2541.64 2907.28,1087 3969.61,2541.64 4427.24,2541.64 4427.24,302.01 3969.61,302.01 3969.61,1749.02 2907.28,302.01 "/>
    <path class="fil0" d="M1160.48 2079.96c-385.9,0 -698.74,-312.85 -698.74,-698.77 0,-385.9 312.84,-698.64 698.74,-698.64 385.93,0 698.77,312.74 698.77,698.64 0,385.92 -312.84,698.77 -698.77,698.77zm0 -1859.14c-640.85,0 -1160.48,519.43 -1160.48,1160.37 0,640.88 519.63,1160.5 1160.48,1160.5 640.96,0 1160.51,-519.62 1160.51,-1160.5 0,-640.94 -519.55,-1160.37 -1160.51,-1160.37z"/>
    <path class="fil0" d="M8884.89 1130.64l0 1017.21 -379.14 0 0 -1017.21 -153 0 0 -303.33 153 0c1.71,-136 11.55,-235.11 29.39,-297.49 17.82,-62.26 63.89,-117.69 138,-166.14 74.11,-48.37 174.66,-72.48 301.97,-72.48 52.37,0 112.45,4.75 180.47,14.49l0 300.62c-55.8,-4.38 -101.95,-6.57 -138.59,-6.57 -53.23,0 -88.52,13.92 -105.96,41.88 -17.46,27.93 -26.14,73.24 -26.14,135.92l0 49.77 239.3 0 0 303.33 -239.3 0z"/>
    <path class="fil0" d="M7524.69 1833.22c-212.89,0 -385.44,-172.74 -385.44,-385.44 0,-212.97 172.55,-385.44 385.44,-385.44 212.78,0 385.44,172.47 385.44,385.44 0,212.7 -172.66,385.44 -385.44,385.44zm0 -1085.72c-386.68,0 -700.17,313.44 -700.17,700.28 0,386.68 313.49,700.09 700.17,700.09 386.58,0 700.18,-313.41 700.18,-700.09 0,-386.84 -313.6,-700.28 -700.18,-700.28z"/>
    <polygon class="fil0" points="8874.86,2557.24 6903.65,2557.24 6903.65,2302.85 8874.86,2302.85 "/>
   </g>
   <path class="fil0" d="M6681.31 4161.45l141.69 0 0 -206.1 109.48 0 1.85 0 138.01 206.1 165.61 0 -157.33 -230.02c81.88,-30.36 138.01,-95.68 138.01,-199.65l0 -1.84c0,-60.73 -19.32,-111.33 -55.21,-147.21 -42.32,-42.33 -105.81,-65.33 -187.69,-65.33l-294.42 0 0 644.05zm141.69 -331.23l0 -184.93 140.77 0c69,0 111.33,31.28 111.33,92.01l0 1.84c0,54.28 -39.57,91.08 -108.57,91.08l-143.53 0zm1188.98 331.23l490.39 0 0 -126.05 -349.62 0 0 -135.25 303.62 0 0 -126.05 -303.62 0 0 -130.65 345.02 0 0 -126.05 -485.79 0 0 644.05zm1511 9.2c138.93,0 236.46,-71.76 236.46,-199.65l0 -1.84c0,-112.25 -73.6,-159.18 -204.25,-193.22 -111.33,-28.52 -138.93,-42.32 -138.93,-84.65l0 -1.84c0,-31.28 28.52,-56.12 82.8,-56.12 54.29,0 110.41,23.92 167.45,63.48l73.61 -106.72c-65.33,-52.45 -145.37,-81.89 -239.22,-81.89 -131.57,0 -225.42,77.29 -225.42,194.14l0 1.84c0,127.88 83.73,163.77 213.46,196.89 107.65,27.6 129.73,46 129.73,81.89l0 1.84c0,37.72 -34.96,60.72 -92.93,60.72 -73.6,0 -134.33,-30.36 -192.29,-78.2l-83.73 100.28c77.29,69.01 175.74,103.05 273.26,103.05zm1338.03 1.84c198.73,0 343.19,-149.97 343.19,-333.06l0 -1.84c0,-183.1 -142.62,-331.23 -341.35,-331.23 -198.74,0 -343.19,149.97 -343.19,333.07l0 1.84c0,183.09 142.61,331.22 341.35,331.22zm1.84 -130.65c-114.09,0 -195.06,-92.01 -195.06,-202.41l0 -1.84c0,-110.41 79.13,-200.58 193.22,-200.58 114.09,0 195.05,92.01 195.05,202.42l0 1.84c0,110.4 -79.12,200.57 -193.21,200.57zm1132.86 119.61l141.69 0 0 -206.1 109.48 0 1.85 0 138.01 206.1 165.61 0 -157.33 -230.02c81.88,-30.36 138.01,-95.68 138.01,-199.65l0 -1.84c0,-60.73 -19.32,-111.33 -55.21,-147.21 -42.32,-42.33 -105.81,-65.33 -187.69,-65.33l-294.42 0 0 644.05zm141.69 -331.23l0 -184.93 140.77 0c69,0 111.33,31.28 111.33,92.01l0 1.84c0,54.28 -39.57,91.08 -108.57,91.08l-143.53 0zm1338.95 331.23l141.69 0 0 -513.4 195.97 0 0 -130.65 -533.64 0 0 130.65 195.98 0 0 513.4z"/>
   <path class="fil0" d="M4518.25 5490.08l106.68 0 0 -502.92 183.73 0 0 -96.52 -474.13 0 0 96.52 183.72 0 0 502.92zm427.67 0l106.68 0 0 -254 77.89 0 138.85 254 128.7 0 -159.18 -265.01c88.91,-12.7 138.86,-76.2 138.86,-162.56 0,-134.62 -108.38,-171.87 -223.52,-171.87l-208.28 0 0 599.44zm106.68 -345.44l0 -162.56 92.28 0c55.04,0 121.08,8.46 121.08,79.58 0,77.9 -70.28,82.98 -130.39,82.98l-82.97 0zm488.62 345.44l106.68 0 0 -599.44 -106.68 0 0 599.44zm302.35 0l106.68 0 0 -294.64 5.92 0 259.93 294.64 149.86 0 -298.87 -322.58 280.25 -276.86 -143.94 0 -248.07 254 -5.08 0 0 -254 -106.68 0 0 599.44zm612.23 -297.18c0,187.11 132.08,312.42 316.66,312.42 187.11,-3.39 319.19,-128.69 319.19,-315.81 0,-192.19 -132.08,-317.5 -319.19,-314.11 -184.58,0 -316.66,125.3 -316.66,317.5zm111.76 -6.77c0,-119.39 82.13,-214.21 205.74,-214.21 124.47,0 206.59,94.82 206.59,214.21 0,127.84 -82.12,222.67 -206.59,222.67 -123.61,0 -205.74,-94.83 -205.74,-222.67zm690.14 303.95l106.68 0 0 -254 77.89 0 138.85 254 128.7 0 -159.18 -265.01c88.91,-12.7 138.86,-76.2 138.86,-162.56 0,-134.62 -108.38,-171.87 -223.52,-171.87l-208.28 0 0 599.44zm106.68 -345.44l0 -162.56 92.28 0c55.04,0 121.08,8.46 121.08,79.58 0,77.9 -70.28,82.98 -130.39,82.98l-82.97 0zm424.27 345.44l119.38 0 54.19 -137.16 259.93 0 55.88 137.16 121.92 0 -258.24 -599.44 -92.29 0 -260.77 599.44zm209.97 -228.6l93.98 -243.84 92.29 243.84 -186.27 0zm783.27 228.6l215.9 0c113.45,0 226.91,-40.64 226.91,-171.03 0,-77.04 -54.19,-136.31 -129.55,-144.78l0 -1.69c61.81,-18.63 104.15,-63.5 104.15,-131.24 0,-109.22 -93.14,-150.7 -183.73,-150.7l-233.68 0 0 599.44zm106.68 -508l88.05 0c80.43,0 115.99,25.4 115.99,77.04 0,44.88 -35.56,75.36 -106.68,75.36l-97.36 0 0 -152.4zm0 243.84l102.44 0c86.36,0 127,22.01 127,84.67 0,78.74 -76.2,88.05 -131.23,88.05l-98.21 0 0 -172.72zm506.4 264.16l412.33 0 0 -96.52 -305.65 0 0 -162.56 275.17 0 0 -96.52 -275.17 0 0 -147.32 290.41 0 0 -96.52 -397.09 0 0 599.44zm514.87 0l119.38 0 54.19 -137.16 259.93 0 55.88 137.16 121.92 0 -258.24 -599.44 -92.29 0 -260.77 599.44zm209.97 -228.6l93.98 -243.84 92.29 243.84 -186.27 0zm1027.11 -291.26c-59.26,-68.58 -128.69,-94.82 -209.97,-94.82 -184.58,0 -316.66,125.3 -316.66,317.5 0,187.11 132.08,312.42 316.66,312.42 88.05,0 169.33,-32.17 223.52,-106.68l-88.05 -62.65c-39.8,50.8 -86.37,72.81 -134.63,72.81 -123.61,0 -205.74,-94.83 -205.74,-222.67 0,-119.39 82.13,-214.21 205.74,-214.21 41.49,0 82.13,12.7 126.16,59.26l82.97 -60.96zm149.96 519.86l106.68 0 0 -264.16 280.25 0 0 264.16 106.68 0 0 -599.44 -106.68 0 0 238.76 -280.25 0 0 -238.76 -106.68 0 0 599.44zm1113.45 -251.46l-209.12 0 0 86.36 209.12 0 0 -86.36zm410.73 251.46l215.9 0c113.45,0 226.91,-40.64 226.91,-171.03 0,-77.04 -54.19,-136.31 -129.55,-144.78l0 -1.69c61.81,-18.63 104.15,-63.5 104.15,-131.24 0,-109.22 -93.14,-150.7 -183.73,-150.7l-233.68 0 0 599.44zm106.68 -508l88.05 0c80.43,0 115.99,25.4 115.99,77.04 0,44.88 -35.56,75.36 -106.68,75.36l-97.36 0 0 -152.4zm0 243.84l102.44 0c86.36,0 127,22.01 127,84.67 0,78.74 -76.2,88.05 -131.23,88.05l-98.21 0 0 -172.72zm503.86 264.16l106.68 0 0 -599.44 -106.68 0 0 599.44zm302.35 0l106.68 0 0 -459.74 1.69 0 296.34 459.74 135.46 0 0 -599.44 -106.68 0 0 445.35 -1.69 0 -290.41 -445.35 -141.39 0 0 599.44zm861.15 0l106.68 0 0 -502.92 183.73 0 0 -96.52 -474.13 0 0 96.52 183.72 0 0 502.92zm282.88 0l119.38 0 54.19 -137.16 259.93 0 55.88 137.16 121.92 0 -258.24 -599.44 -92.29 0 -260.77 599.44zm209.97 -228.6l93.98 -243.84 92.29 243.84 -186.27 0zm532.66 228.6l106.68 0 0 -459.74 1.69 0 296.34 459.74 135.46 0 0 -599.44 -106.68 0 0 445.35 -1.69 0 -290.41 -445.35 -141.39 0 0 599.44z"/>
  </g>
 </g>
</svg>
