<?xml version="1.0" encoding="UTF-8"?>
<!DOCTYPE svg PUBLIC "-//W3C//DTD SVG 1.1//EN" "http://www.w3.org/Graphics/SVG/1.1/DTD/svg11.dtd">
<!-- Creator: CorelDRAW 2021.5 -->
<svg xmlns="http://www.w3.org/2000/svg" xml:space="preserve" width="109.225mm" height="29.314mm" version="1.1" style="shape-rendering:geometricPrecision; text-rendering:geometricPrecision; image-rendering:optimizeQuality; fill-rule:evenodd; clip-rule:evenodd"
viewBox="0 0 1370.65 367.86"
 xmlns:xlink="http://www.w3.org/1999/xlink"
 xmlns:xodm="http://www.corel.com/coreldraw/odm/2003">
 <defs>
  <style type="text/css">
   <![CDATA[
    .fil0 {fill:#FEFEFE;fill-rule:nonzero}
   ]]>
  </style>
 </defs>
 <g id="Layer_x0020_1">
  <metadata id="CorelCorpID_0Corel-Layer"/>
  <g id="_2339840946480">
   <g>
    <path class="fil0" d="M1370.65 23.76c0,6.56 -2.66,12.49 -6.96,16.79 -4.3,4.3 -10.23,6.95 -16.79,6.95 -6.56,0 -12.49,-2.66 -16.79,-6.96 -4.3,-4.3 -6.96,-10.24 -6.96,-16.79 0,-6.56 2.66,-12.5 6.95,-16.8 4.3,-4.3 10.24,-6.96 16.79,-6.96 6.56,0 12.5,2.66 16.8,6.96 4.3,4.3 6.96,10.24 6.96,16.8zm-8.62 15.13c3.87,-3.87 6.27,-9.22 6.27,-15.13 0,-5.91 -2.39,-11.27 -6.26,-15.14 -3.87,-3.87 -9.22,-6.26 -15.13,-6.26 -5.91,0 -11.26,2.39 -15.13,6.26 -3.87,3.87 -6.26,9.22 -6.26,15.14 0,5.91 2.39,11.25 6.26,15.13 3.87,3.87 9.22,6.26 15.12,6.26 5.91,0 11.26,-2.39 15.13,-6.26z"/>
    <path class="fil0" d="M1342.25 21.42l3.66 0c2.36,0 3.85,-0.11 4.44,-0.3 0.59,-0.21 1.05,-0.55 1.38,-1.04 0.34,-0.49 0.5,-1.1 0.5,-1.84 0,-0.82 -0.22,-1.49 -0.66,-1.99 -0.44,-0.51 -1.06,-0.82 -1.86,-0.96 -0.4,-0.06 -1.61,-0.09 -3.61,-0.09l-3.85 0 0 6.22zm-4.95 14.12l0 -24.48 10.4 0c2.62,0 4.52,0.22 5.71,0.66 1.18,0.44 2.13,1.22 2.84,2.35 0.71,1.11 1.07,2.4 1.07,3.85 0,1.83 -0.54,3.36 -1.62,4.56 -1.08,1.19 -2.7,1.94 -4.84,2.26 1.06,0.62 1.95,1.31 2.64,2.05 0.7,0.76 1.63,2.08 2.81,3.99l2.99 4.77 -5.91 0 -3.58 -5.33c-1.27,-1.9 -2.14,-3.09 -2.6,-3.59 -0.47,-0.5 -0.97,-0.83 -1.49,-1.02 -0.52,-0.19 -1.35,-0.27 -2.49,-0.27l-1 0 0 10.22 -4.95 0z"/>
    <path class="fil0" d="M702.08 111.94l22.39 -56.24 21.84 56.24 -44.23 0zm40.95 -92.86l-37.68 0 -58.43 149.64 35.49 0 10.92 -26.74 63.34 0 10.92 26.74 34.95 0 -59.52 -149.64z"/>
    <path class="fil0" d="M1249.19 140.9c-0.29,0.08 -40.37,0 -40.37,0l0 -93.86 40.37 -0.69c43.36,7.22 53.24,79.07 0,94.55zm2.22 -121.84l-73.71 0 0 149.65c0,0 73.18,0.13 73.71,0 97.2,-24.57 79.18,-138.18 0,-149.65z"/>
    <polygon class="fil0" points="852.25,19.08 882.82,19.08 882.82,93.92 937.43,19.08 974.01,19.08 920.5,93.37 978.38,168.72 941.25,168.72 902.48,118.49 882.82,141.42 882.82,168.72 852.25,168.72 "/>
    <polygon class="fil0" points="987.12,19.08 1017.7,19.08 1017.7,168.72 987.12,168.72 "/>
    <polygon class="fil0" points="1030.26,19.08 1030.26,168.72 1063.57,168.72 1063.57,71.53 1134.56,168.72 1165.13,168.72 1165.13,19.08 1134.56,19.08 1134.56,115.76 1063.57,19.08 "/>
    <polygon class="fil0" points="409.39,20.18 306.74,20.18 306.74,169.83 414.3,169.83 414.3,143.07 337.31,143.07 337.31,108.68 391.37,108.68 391.37,80.83 337.31,80.83 337.31,47.51 409.39,47.51 "/>
    <polygon class="fil0" points="160.95,20.18 160.95,169.83 194.26,169.83 194.26,72.63 265.24,169.83 295.82,169.83 295.82,20.18 265.24,20.18 265.24,116.87 194.26,20.18 "/>
    <path class="fil0" d="M77.54 138.98c-25.79,0 -46.69,-20.9 -46.69,-46.69 0,-25.79 20.9,-46.68 46.69,-46.68 25.79,0 46.69,20.9 46.69,46.68 0,25.79 -20.9,46.69 -46.69,46.69zm0 -124.22c-42.82,0 -77.54,34.71 -77.54,77.53 0,42.82 34.72,77.54 77.54,77.54 42.83,0 77.54,-34.72 77.54,-77.54 0,-42.83 -34.72,-77.53 -77.54,-77.53z"/>
    <path class="fil0" d="M593.67 75.55l0 67.97 -25.33 0 0 -67.97 -10.22 0 0 -20.27 10.22 0c0.11,-9.09 0.77,-15.71 1.96,-19.88 1.19,-4.16 4.27,-7.86 9.22,-11.1 4.95,-3.23 11.67,-4.84 20.18,-4.84 3.5,0 7.51,0.32 12.06,0.97l0 20.09c-3.73,-0.29 -6.81,-0.44 -9.26,-0.44 -3.56,0 -5.91,0.93 -7.08,2.8 -1.17,1.87 -1.75,4.89 -1.75,9.08l0 3.33 15.99 0 0 20.27 -15.99 0z"/>
    <path class="fil0" d="M502.79 122.49c-14.23,0 -25.76,-11.54 -25.76,-25.75 0,-14.23 11.53,-25.75 25.76,-25.75 14.22,0 25.75,11.52 25.75,25.75 0,14.21 -11.54,25.75 -25.75,25.75zm0 -72.55c-25.84,0 -46.78,20.94 -46.78,46.79 0,25.84 20.95,46.78 46.78,46.78 25.83,0 46.78,-20.94 46.78,-46.78 0,-25.85 -20.95,-46.79 -46.78,-46.79z"/>
    <polygon class="fil0" points="593,170.87 461.29,170.87 461.29,153.87 593,153.87 "/>
   </g>
   <path class="fil0" d="M446.43 278.06l9.47 0 0 -13.77 7.31 0 0.12 0 9.22 13.77 11.07 0 -10.51 -15.37c5.47,-2.03 9.22,-6.39 9.22,-13.34l0 -0.12c0,-4.06 -1.29,-7.44 -3.69,-9.84 -2.83,-2.83 -7.07,-4.36 -12.54,-4.36l-19.67 0 0 43.03zm9.47 -22.13l0 -12.36 9.41 0c4.61,0 7.44,2.09 7.44,6.15l0 0.12c0,3.63 -2.64,6.09 -7.25,6.09l-9.59 0zm79.45 22.13l32.77 0 0 -8.42 -23.36 0 0 -9.04 20.29 0 0 -8.42 -20.29 0 0 -8.73 23.05 0 0 -8.42 -32.46 0 0 43.03zm100.96 0.61c9.28,0 15.8,-4.79 15.8,-13.34l0 -0.12c0,-7.5 -4.92,-10.64 -13.65,-12.91 -7.44,-1.9 -9.28,-2.83 -9.28,-5.66l0 -0.12c0,-2.09 1.91,-3.75 5.53,-3.75 3.63,0 7.38,1.6 11.19,4.24l4.92 -7.13c-4.37,-3.5 -9.71,-5.47 -15.98,-5.47 -8.79,0 -15.06,5.16 -15.06,12.97l0 0.12c0,8.55 5.59,10.94 14.26,13.16 7.19,1.84 8.67,3.07 8.67,5.47l0 0.12c0,2.52 -2.34,4.06 -6.21,4.06 -4.92,0 -8.97,-2.03 -12.85,-5.23l-5.6 6.7c5.17,4.61 11.74,6.89 18.26,6.89zm89.4 0.12c13.28,0 22.93,-10.02 22.93,-22.25l0 -0.12c0,-12.24 -9.53,-22.13 -22.81,-22.13 -13.28,0 -22.93,10.02 -22.93,22.26l0 0.12c0,12.23 9.53,22.13 22.81,22.13zm0.12 -8.73c-7.62,0 -13.03,-6.15 -13.03,-13.53l0 -0.12c0,-7.38 5.29,-13.4 12.91,-13.4 7.62,0 13.03,6.15 13.03,13.53l0 0.12c0,7.38 -5.29,13.4 -12.91,13.4zm75.7 7.99l9.47 0 0 -13.77 7.32 0 0.12 0 9.22 13.77 11.07 0 -10.51 -15.37c5.47,-2.03 9.22,-6.39 9.22,-13.34l0 -0.12c0,-4.06 -1.29,-7.44 -3.69,-9.84 -2.83,-2.83 -7.07,-4.36 -12.54,-4.36l-19.67 0 0 43.03zm9.47 -22.13l0 -12.36 9.41 0c4.61,0 7.44,2.09 7.44,6.15l0 0.12c0,3.63 -2.64,6.09 -7.25,6.09l-9.59 0zm89.47 22.13l9.47 0 0 -34.3 13.09 0 0 -8.73 -35.66 0 0 8.73 13.09 0 0 34.3z"/>
   <path class="fil0" d="M301.9 366.84l7.13 0 0 -33.6 12.28 0 0 -6.45 -31.68 0 0 6.45 12.28 0 0 33.6zm28.58 0l7.13 0 0 -16.97 5.2 0 9.28 16.97 8.6 0 -10.64 -17.71c5.94,-0.85 9.28,-5.09 9.28,-10.86 0,-8.99 -7.24,-11.48 -14.94,-11.48l-13.92 0 0 40.05zm7.13 -23.08l0 -10.86 6.17 0c3.68,0 8.09,0.56 8.09,5.32 0,5.21 -4.7,5.54 -8.71,5.54l-5.54 0zm32.65 23.08l7.13 0 0 -40.05 -7.13 0 0 40.05zm20.2 0l7.13 0 0 -19.69 0.4 0 17.37 19.69 10.01 0 -19.97 -21.55 18.73 -18.5 -9.62 0 -16.58 16.97 -0.34 0 0 -16.97 -7.13 0 0 40.05zm40.91 -19.86c0,12.5 8.82,20.87 21.16,20.87 12.5,-0.23 21.33,-8.6 21.33,-21.1 0,-12.84 -8.83,-21.22 -21.33,-20.99 -12.33,0 -21.16,8.37 -21.16,21.22zm7.47 -0.45c0,-7.98 5.49,-14.31 13.75,-14.31 8.32,0 13.8,6.33 13.8,14.31 0,8.54 -5.49,14.88 -13.8,14.88 -8.26,0 -13.75,-6.34 -13.75,-14.88zm46.11 20.31l7.13 0 0 -16.97 5.2 0 9.28 16.97 8.6 0 -10.64 -17.71c5.94,-0.85 9.28,-5.09 9.28,-10.86 0,-8.99 -7.24,-11.48 -14.93,-11.48l-13.92 0 0 40.05zm7.13 -23.08l0 -10.86 6.17 0c3.68,0 8.09,0.56 8.09,5.32 0,5.21 -4.7,5.54 -8.71,5.54l-5.54 0zm28.35 23.08l7.98 0 3.62 -9.16 17.37 0 3.73 9.16 8.15 0 -17.26 -40.05 -6.17 0 -17.42 40.05zm14.03 -15.27l6.28 -16.29 6.17 16.29 -12.45 0zm52.34 15.27l14.43 0c7.58,0 15.16,-2.72 15.16,-11.43 0,-5.15 -3.62,-9.11 -8.66,-9.67l0 -0.11c4.13,-1.24 6.96,-4.24 6.96,-8.77 0,-7.3 -6.22,-10.07 -12.28,-10.07l-15.61 0 0 40.05zm7.13 -33.94l5.88 0c5.37,0 7.75,1.7 7.75,5.15 0,3 -2.38,5.03 -7.13,5.03l-6.51 0 0 -10.18zm0 16.29l6.85 0c5.77,0 8.49,1.47 8.49,5.66 0,5.26 -5.09,5.88 -8.77,5.88l-6.56 0 0 -11.54zm33.84 17.65l27.55 0 0 -6.45 -20.42 0 0 -10.86 18.39 0 0 -6.45 -18.39 0 0 -9.84 19.4 0 0 -6.45 -26.53 0 0 40.05zm34.4 0l7.98 0 3.62 -9.16 17.37 0 3.73 9.16 8.15 0 -17.25 -40.05 -6.17 0 -17.42 40.05zm14.03 -15.27l6.28 -16.29 6.17 16.29 -12.45 0zm68.63 -19.46c-3.96,-4.58 -8.6,-6.34 -14.03,-6.34 -12.33,0 -21.16,8.37 -21.16,21.22 0,12.5 8.83,20.87 21.16,20.87 5.88,0 11.31,-2.15 14.94,-7.13l-5.88 -4.19c-2.66,3.39 -5.77,4.87 -8.99,4.87 -8.26,0 -13.75,-6.34 -13.75,-14.88 0,-7.98 5.49,-14.31 13.75,-14.31 2.77,0 5.49,0.85 8.43,3.96l5.54 -4.07zm10.02 34.74l7.13 0 0 -17.65 18.73 0 0 17.65 7.13 0 0 -40.05 -7.13 0 0 15.95 -18.73 0 0 -15.95 -7.13 0 0 40.05zm74.4 -16.8l-13.97 0 0 5.77 13.97 0 0 -5.77zm27.44 16.8l14.43 0c7.58,0 15.16,-2.72 15.16,-11.43 0,-5.15 -3.62,-9.11 -8.66,-9.67l0 -0.11c4.13,-1.24 6.96,-4.24 6.96,-8.77 0,-7.3 -6.22,-10.07 -12.28,-10.07l-15.61 0 0 40.05zm7.13 -33.94l5.88 0c5.37,0 7.75,1.7 7.75,5.15 0,3 -2.38,5.03 -7.13,5.03l-6.51 0 0 -10.18zm0 16.29l6.85 0c5.77,0 8.49,1.47 8.49,5.66 0,5.26 -5.09,5.88 -8.77,5.88l-6.56 0 0 -11.54zm33.67 17.65l7.13 0 0 -40.05 -7.13 0 0 40.05zm20.2 0l7.13 0 0 -30.72 0.11 0 19.8 30.72 9.05 0 0 -40.05 -7.13 0 0 29.76 -0.11 0 -19.41 -29.76 -9.45 0 0 40.05zm57.54 0l7.13 0 0 -33.6 12.28 0 0 -6.45 -31.68 0 0 6.45 12.28 0 0 33.6zm18.9 0l7.98 0 3.62 -9.16 17.37 0 3.73 9.16 8.15 0 -17.26 -40.05 -6.17 0 -17.42 40.05zm14.03 -15.27l6.28 -16.29 6.17 16.29 -12.45 0zm35.59 15.27l7.13 0 0 -30.72 0.11 0 19.8 30.72 9.05 0 0 -40.05 -7.13 0 0 29.76 -0.11 0 -19.41 -29.76 -9.45 0 0 40.05z"/>
  </g>
 </g>
</svg>
