<?xml version="1.0" encoding="UTF-8"?>
<!DOCTYPE svg PUBLIC "-//W3C//DTD SVG 1.1//EN" "http://www.w3.org/Graphics/SVG/1.1/DTD/svg11.dtd">
<!-- Creator: CorelDRAW 2021.5 -->
<svg xmlns="http://www.w3.org/2000/svg" xml:space="preserve" width="210.2mm" height="297.2mm" version="1.1" style="shape-rendering:geometricPrecision; text-rendering:geometricPrecision; image-rendering:optimizeQuality; fill-rule:evenodd; clip-rule:evenodd"
viewBox="0 0 21005.75 29699.85"
 xmlns:xlink="http://www.w3.org/1999/xlink"
 xmlns:xodm="http://www.corel.com/coreldraw/odm/2003">
 <defs>
  <style type="text/css">
   <![CDATA[
    .str0 {stroke:#332C2B;stroke-width:19.99;stroke-miterlimit:22.9256}
    .fil0 {fill:url(#id0)}
    .fil10 {fill:url(#id1);fill-rule:nonzero;fill-opacity:0.490196}
    .fil2 {fill:url(#id2);fill-rule:nonzero;fill-opacity:0.490196}
    .fil3 {fill:url(#id3);fill-rule:nonzero;fill-opacity:0.490196}
    .fil4 {fill:url(#id4);fill-rule:nonzero;fill-opacity:0.490196}
    .fil7 {fill:url(#id5);fill-rule:nonzero;fill-opacity:0.490196}
    .fil5 {fill:url(#id6);fill-rule:nonzero;fill-opacity:0.490196}
    .fil9 {fill:url(#id7);fill-rule:nonzero;fill-opacity:0.490196}
    .fil6 {fill:url(#id8);fill-rule:nonzero;fill-opacity:0.490196}
    .fil1 {fill:url(#id9);fill-rule:nonzero;fill-opacity:0.490196}
    .fil8 {fill:url(#id10);fill-rule:nonzero;fill-opacity:0.490196}
   ]]>
  </style>
  <linearGradient id="id0" gradientUnits="userSpaceOnUse" x1="11109.27" y1="-20393.38" x2="10659.06" y2="32835.65">
   <stop offset="0" style="stop-opacity:1; stop-color:#757475"/>
   <stop offset="0.0117647" style="stop-opacity:1; stop-color:#B9B9B9"/>
   <stop offset="1" style="stop-opacity:1; stop-color:#FEFEFE"/>
  </linearGradient>
  <linearGradient id="id1" gradientUnits="userSpaceOnUse" x1="8734.93" y1="20524.57" x2="-2191.22" y2="31236.19">
   <stop offset="0" style="stop-opacity:1; stop-color:#CBCBCC"/>
   <stop offset="1" style="stop-opacity:1; stop-color:#5F5D5D"/>
  </linearGradient>
  <linearGradient id="id2" gradientUnits="userSpaceOnUse" xlink:href="#id1" x1="8734.93" y1="20524.57" x2="-2191.22" y2="31236.19">
  </linearGradient>
  <linearGradient id="id3" gradientUnits="userSpaceOnUse" xlink:href="#id1" x1="8734.93" y1="20524.57" x2="-2191.22" y2="31236.19">
  </linearGradient>
  <linearGradient id="id4" gradientUnits="userSpaceOnUse" xlink:href="#id1" x1="8734.93" y1="20524.57" x2="-2191.22" y2="31236.19">
  </linearGradient>
  <linearGradient id="id5" gradientUnits="userSpaceOnUse" xlink:href="#id1" x1="8734.93" y1="20524.57" x2="-2191.22" y2="31236.19">
  </linearGradient>
  <linearGradient id="id6" gradientUnits="userSpaceOnUse" xlink:href="#id1" x1="8734.93" y1="20524.57" x2="-2191.22" y2="31236.19">
  </linearGradient>
  <linearGradient id="id7" gradientUnits="userSpaceOnUse" xlink:href="#id1" x1="8734.93" y1="20524.57" x2="-2191.22" y2="31236.19">
  </linearGradient>
  <linearGradient id="id8" gradientUnits="userSpaceOnUse" xlink:href="#id1" x1="8734.93" y1="20524.57" x2="-2191.22" y2="31236.19">
  </linearGradient>
  <linearGradient id="id9" gradientUnits="userSpaceOnUse" xlink:href="#id1" x1="8734.93" y1="20524.57" x2="-2191.22" y2="31236.19">
  </linearGradient>
  <linearGradient id="id10" gradientUnits="userSpaceOnUse" xlink:href="#id1" x1="8734.93" y1="20524.57" x2="-2191.22" y2="31236.19">
  </linearGradient>
 </defs>
 <g id="Layer_x0020_1">
  <metadata id="CorelCorpID_0Corel-Layer"/>
  <rect class="fil0 str0" x="9.99" y="9.99" width="20985.76" height="29679.87"/>
  <g id="_2340089143792">
   <g>
    <path class="fil1" d="M4427.28 23230.63c-19.87,16.19 -40.85,23.41 -53.4,36.36 396.28,48.26 822.93,130.86 1206.33,4.93 -360.83,-147.97 -748.01,-61.66 -1133.38,-77.59 -0.98,13.08 -6.9,26.03 -19.55,36.31z"/>
    <path class="fil2" d="M7520.18 26800.41c589.23,137.73 1163.93,291.44 1771.29,326.6 1173.01,67.95 2379.47,-335.9 2933.43,-1436.35 229.53,-455.94 297.01,-1000.1 207.72,-1500.07 -96.73,-541.68 -408.93,-979.92 -819.33,-1332.87 -451.09,-387.9 -1011.48,-661.03 -1557.26,-887.4 -544.8,-226.04 -1119.36,-437.67 -1696.5,-559.74 -713.27,-150.91 -1458.07,-152.91 -2182.86,-207.95 -538.72,-40.86 -1068.43,-150.9 -1607.8,-187.43 -266.43,-18.05 -533.98,-14.81 -798.28,14.28 -149.08,26.07 -299.71,59.16 -439.54,97.17 -179.54,48.84 -450.25,153.54 -566.33,309.48 -107,143.65 -235.47,256.16 -327.82,414.67 -101.79,174.6 -164.79,368.02 -210.56,563.89 -186.51,798.1 65.7,1712.05 593.88,2321.23 773.06,891.58 1870.1,1390.49 2993.2,1676.37 565.11,143.8 1138.83,255.43 1706.76,388.12zm2448.93 -1359.19l0 0c-872.15,600.54 -1946.07,649.65 -2969.94,570.05 -1110.35,-86.22 -2320.1,-365.93 -3266.47,-977.54 -947.73,-612.44 -2198.53,-2481.21 -863.19,-3353.43 295.72,-193.16 641.97,-247.05 987.25,-269.4 2.15,-0.12 3.63,0.68 5.65,0.73 466.62,-39.75 923.32,40.77 1399.24,108.99 583.02,83.62 1176.88,25.77 1762.86,6.92 523.02,-16.82 1050.4,-7.68 1568.47,71.4 966.28,147.55 2044.07,687.87 2421.88,1648.25 346.2,879.89 -368.7,1727.84 -1045.74,2194.02z"/>
    <path class="fil3" d="M3825.45 23172.58c-2.21,226.84 291.52,376.42 461.75,458.14 534.5,256.75 1194.96,288.93 1743.86,68.71 177.49,-71.22 838.36,-383.94 602.51,-662.47 -170.71,-201.73 -656.65,-123.9 -891.89,-142.74 -265.53,-21.33 -504.19,-200.12 -740.64,-310.77 -152.59,-71.39 -307.16,-75.1 -461.46,-49.53 -4.15,11.08 -12.45,21.02 -25.87,27.01 -238.91,106.86 -685.23,296.41 -688.25,611.65zm1944.21 147.59l0 0c-467.99,235.72 -1011.1,94.08 -1505.44,42.51 -30.63,-3.19 -52.53,-25.31 -59.29,-54.66 -26.63,-115.36 4.84,-140.23 73.52,-172.3 -13.8,-25.41 -5.54,-63.07 29.84,-67.41 481.84,-60.17 1037.12,-146.53 1472.39,119.27 51.16,31.26 37.93,107.92 -11.02,132.6z"/>
    <path class="fil4" d="M5361.15 25508.7c601.34,175.75 1225.48,273.72 1850.28,310.04 554.07,32.16 1144.17,25.53 1686.42,-104.27 490.73,-117.51 951.57,-382.41 1328.21,-714.12 293.33,-258.36 534.5,-586.5 640.16,-966.02 124.47,-447.19 -45.91,-880.71 -340.42,-1218.52 -648.65,-744.08 -1571.47,-1018.48 -2526.74,-1086.01 -923.38,-65.37 -1857.65,77.65 -2775.59,-55.34 -571.8,-82.81 -1110.06,-186.27 -1684.78,-96.99 -317.75,77.55 -628.07,213.21 -841.39,460.44 -227.79,263.96 -248.45,615.32 -186.07,941.76 141.97,742.97 673.75,1426.34 1285.09,1849.89 464.46,321.75 1026.7,521.98 1564.83,679.16zm2121.31 -891.33l0 0c-869.49,565.69 -2090.61,426.3 -2999.34,46.39 -743.03,-310.52 -1515.82,-1074.46 -1216.65,-1956.73 156.59,-461.93 591.34,-661.54 1041.42,-682.39 576.08,-104.07 1101.79,149.07 1687.3,220.81 578.53,70.75 1144.23,40.59 1675.32,324.23 354.9,189.59 620.66,528.77 600.18,943.68 -23.16,467.91 -420.31,864.63 -788.24,1104.01z"/>
    <path class="fil5" d="M3402.37 22973.51c-44.88,410.35 180.76,816.56 463.98,1095.13 324.75,319.35 821.77,490.09 1252.79,599.75 515.19,131.15 1070.04,151.93 1588.27,27.78 799.26,-191.42 1893.05,-1209.14 891.91,-1884.27 -471.68,-318.07 -1008.44,-331.67 -1550.78,-401.83 -664.25,-85.88 -1269.14,-429.57 -1944.62,-195.89 -37.11,12.75 -63.7,-7.55 -73.94,-35.68 -333.02,130.78 -585.38,407.9 -627.61,795zm2731.44 896.67l0 0c-656.17,286.42 -1512.98,207.85 -2116.72,-177.11 -205.82,-131.16 -388.7,-329.85 -358.23,-589.18 21.42,-182.17 163.03,-317.35 333.38,-418.73 -28.63,-2.59 -37.41,-45.58 -6.12,-59.08 302.46,-130.69 709.61,-290.43 1042.6,-171.2 161.73,58.05 315.86,135.87 476.54,197.11 212.74,81.16 429.94,59.04 654.38,67.18 302.8,10.87 737.47,71.11 711.95,467.15 -22.82,354.1 -458.62,561.86 -737.78,683.86z"/>
   </g>
   <path class="fil6" d="M7833.02 28344.64c304.16,117.6 627.39,178.34 950.99,208.75 639.38,60.15 1289.99,-47.4 1918.86,-152.4 507.97,-84.8 1000.43,-181.69 1475.17,-388.19 801.8,-348.73 1399.78,-1005.82 1660.75,-1840.56 309.6,-990.28 231.33,-2111.29 -218.83,-3042.87 -482.54,-998.46 -1401.8,-1750.44 -2433.29,-2125.26 -676.6,-245.82 -1380.53,-415.08 -2098.8,-473.3 -755.26,-61.38 -1475.22,216.22 -2226.95,214.26 -601.45,-1.53 -1204.89,-266.99 -1783.59,-406.33 -690.43,-166.27 -1431.35,-218.6 -2053.77,181.45 -25.6,16.4 -50.97,3.45 -62.13,-16.95 -258.08,134.76 -501.79,303.59 -725.3,464.64 -477.9,344.45 -900.57,807.01 -1036.29,1393.16 -131.81,569.04 54.02,1159.23 273.12,1680.88 219.05,521.3 498.79,1008.54 881.8,1427.26 709.34,775.58 1691.39,1221.5 2644.85,1617.5 651.82,270.81 1308.01,519.65 1943.22,829.7 296.56,144.74 581.84,308.93 890.17,428.24zm4353.07 -2196.14l0 0c-697.71,963.57 -1938.76,1283.8 -3074.46,1233 -598.95,-26.93 -1171.49,-175.74 -1751.61,-312.34 -569.76,-134.12 -1131.38,-274.66 -1687.89,-457.68 -1064.26,-349.97 -2117.55,-795.71 -2944.65,-1571.24 -639.43,-599.58 -996.42,-1372.2 -1003.28,-2252.08 -4.15,-524.01 164.12,-1104.18 499.31,-1512.08 414.97,-504.96 990.7,-586.49 1601.32,-644.42 24.94,-2.3 44.22,7.85 57.51,23.95 676.03,-21.8 1377.98,134.5 2037.4,188.1 1303.65,106.06 2588.41,158.62 3847.48,542.45 1043.79,318.19 2199.58,837.04 2717.65,1859.46 468.76,925.17 297.81,2079.1 -298.77,2902.88z"/>
   <path class="fil7" d="M9.99 18405.3c341.25,-316.25 717.38,-588.23 1083.2,-877.89 478,-378.37 963.73,-746.36 1520.32,-1002.63 583.59,-268.68 1230.06,-374.44 1867.92,-361.14 1437.5,29.9 2818.39,408.41 4228.33,633.72 703.07,112.38 1415.89,157.06 2119.98,265.96 572.18,88.52 1133.38,267.36 1674.49,471.83 619.4,233.94 1211.57,541.93 1714.74,964.37 2.58,1.87 5.08,3.73 7.54,6.08 174.37,147.07 338.14,307.75 488.32,484.21 25.14,29.57 26.54,76.5 12,110.73 -2.45,5.65 10.3,30.11 31.07,64.34 49.46,55.08 99.38,109.25 149.93,161.32 100.99,104.01 214.39,197.75 330.66,284.09 135.54,100.7 285.41,127.59 449.47,150.48 175.85,24.55 345.6,29.48 505.06,117.44 164.41,90.59 297.45,231.46 412.13,377.7 537.53,685.67 713.31,1669.83 906.23,2498.03 158.93,682.45 176.34,1386.28 201.77,2083.56 24.85,680.22 88.92,1348.94 175.69,2023.7 125.4,974.87 143.63,1956.68 -250.99,2834.08l654.5 0c107.33,-309.75 193.93,-627.9 254.02,-920.25 98.12,-477.22 546.58,-909.54 403.5,-1422.85 -107.16,-383.91 -541.57,-532.43 -724.62,-867.61 -244.55,-447.96 -155.18,-1062.06 -155.41,-1550.07 0,-398 340.42,-795.36 476.54,-1192.69 68.15,-66.22 0,-1788.2 -476.54,-2251.74 -204.3,-198.69 -408.5,-794.69 -612.76,-1125.93 -272.34,-397.33 -476.6,-529.79 -680.92,-993.38 -204.21,-397.41 -1429.82,-1390.75 -2042.57,-1523.27 -612.79,-132.34 -817.06,-331.11 -1361.72,-595.96 -953.23,-463.63 -2110.72,-529.93 -3131.99,-861 -408.53,-66.18 -612.82,-198.69 -1089.39,-264.89 -204.26,-66.22 -476.63,198.72 -680.91,132.42 -340.43,-66.22 -544.68,-397.37 -816.96,-463.54 -340.47,-66.27 -885.15,264.9 -1157.52,198.64 -204.24,-66.22 -408.49,-397.28 -612.75,-397.28 -817.02,-132.51 -1974.52,0 -2927.72,331.07 -484.31,157.02 -1829.78,965.6 -2944.61,1763.61l0 714.76z"/>
   <path class="fil8" d="M9.99 27589.23l0 2090.51 9.8 15.51 2176.3 0c-156.72,-117.27 -310.94,-237.68 -462.84,-360.47 -642.15,-519.13 -1229.93,-1093.69 -1723.27,-1745.56zm0 -8773.73l0 0 0 307.07c482.81,-513.74 1038.69,-967.56 1619.49,-1356.13 796.4,-532.73 1729.25,-744.58 2678.68,-700.03 479.25,22.46 951.36,123.3 1410.81,256.96 526.71,153.25 1027.84,374.06 1563.46,502.35 216.46,51.9 437.13,72.21 657.9,95.66 108.57,11.55 217.18,21.5 325.98,30.75 90.81,7.77 226.84,-8.87 309.86,30.41 120.7,57 319.42,30.58 448.12,30.25 40.58,-0.18 79.8,3.51 118.99,7.76 958.09,-149.72 1909.41,-264.26 2886.42,-136.29 530.51,69.43 1094.94,249.73 1512.77,595.87 208.5,172.75 388.54,344.89 551.17,563.36 180.93,243.15 327.63,508.43 543.87,723.98 407.7,406.54 971.35,596.98 1378.07,1003.02 402.44,401.83 627.52,972.31 729.06,1522.44 109.44,592.66 54.19,1209.96 28.09,1807.53 -31.66,726.19 24.95,1450.08 66.92,2174.65 38.32,661.79 83.43,1351.32 -29.8,2008.24 -84.79,491.92 -363.41,940.63 -725.34,1277.56 -50.29,46.81 -101.69,91.57 -154.18,134.34l1256.75 0c465.91,-855.85 421.96,-1900.92 315.27,-2864.61 -72.16,-651.44 -142.57,-1293.19 -167.1,-1949.13 -25.57,-683.3 -55.49,-1365.39 -178.4,-2039.51 -151.92,-833.05 -255.93,-1784.2 -772.53,-2485 -108.21,-146.77 -263.25,-288.29 -428.22,-368.91 -115.51,-56.35 -435.47,-47.65 -505.28,-161.89 -50.99,-83.29 -227.23,-148.78 -309.4,-205.78 -60.25,-41.79 -116.76,-88.26 -171.45,-136.89 5.47,8.44 10.01,15.62 12.34,19.88 18.8,34.33 -28.45,71.77 -50.7,36.83 -17.96,-28.21 -86.15,-142.96 -154.45,-238.15 -45.62,-44.29 -90.29,-89.32 -134,-134.84 -1.91,-0.09 -4.14,-0.94 -5.86,-0.56 -40.81,9.3 -78.17,-17.37 -103.44,-45.23 -767.28,-848.92 -1898.43,-1336.59 -2983.91,-1623.95 -654.84,-173.34 -1375.27,-88.26 -2044.45,-153.04 -723.5,-70.16 -1430.68,-200.46 -2141.95,-347.45 -700.03,-144.62 -1398.1,-243.37 -2108.41,-320.12 -696.7,-75.3 -1369.47,-82.26 -2059.76,46.59 -618.79,115.57 -1181.14,525.38 -1678.14,888.39 -482.55,352.31 -980.69,696.03 -1412.7,1110.52 -31.95,30.68 -63.48,61.72 -94.58,93.11z"/>
   <path class="fil9" d="M9.99 25827.88l0 1101.64c79.92,104.99 162.97,207.86 248.39,308.85 772.42,914.09 1649.04,1710.01 2629.31,2396.69 28.95,20.31 57.97,40.35 87.09,60.19l2440.52 0c-175.36,-88.21 -348.78,-180.22 -520.25,-274.75 -1119.4,-617.63 -2165.85,-1351.62 -3218.78,-2072.28 -619.24,-423.88 -1208.33,-922.53 -1666.29,-1520.34zm0 -6234.46l0 0 0 1281.77c212.26,-296.64 453.35,-574.11 701.01,-836.49 289.78,-307.07 600.48,-592.83 902.71,-887.37 300.8,-293.06 621.04,-503.81 1026.38,-623.44 385.69,-113.83 791.44,-112.13 1189.12,-124.2 484.43,-14.74 972.11,-24.21 1457.03,-30.37 203.61,-2.55 413.87,-2.47 615.22,30.8 99.9,16.43 198.75,34.66 297.37,57.2 105.51,24.25 171.63,81 265.39,117.78 223.32,87.62 446.98,211.68 676.07,308.73 211.11,13.46 422.26,-12.66 630.96,-59.01 652.55,-145.07 1294.71,-199.44 1963.52,-161.89 634.36,35.72 1276.45,88.13 1892.66,250.76 516.48,136.16 981.37,357.27 1435.45,635.12 532.76,325.8 1063.06,648.93 1602.45,963.87 499.34,291.47 1027.69,659.32 1269,1204.87 191.31,432.55 105.04,918.3 110.97,1375.38 2.56,195.89 22.92,392.35 43.67,587.09 22.67,212.87 16.47,424.84 33.68,639.58 123.34,1538.39 503.38,3468.24 -761.23,4664.29 -320.17,302.9 -723.44,499.46 -1138.2,636.05 -73.65,24.21 -147.52,48.01 -221.58,71.32l1510.03 0c174.71,-119.74 338.04,-255.14 484.77,-406.97 430.85,-445.58 568.38,-975.03 600.76,-1578.14 38.97,-725.59 -13.25,-1452.27 -45.08,-2177.06 -29.4,-668.85 -10.67,-1329.8 19.8,-1998.12 29.05,-636.67 20.05,-1283.77 -213.24,-1885.64 -245.37,-632.87 -727.52,-969.68 -1280.71,-1306.61 -246.07,-149.84 -474.54,-328.42 -671.03,-539.43 -195.89,-210.41 -336.82,-468.28 -508.08,-698.03 -376.19,-504.56 -1029.99,-706.85 -1606.8,-881.24 -606.29,-183.27 -1253.39,-205.06 -1881.37,-181.4 -137.71,5.14 -275.5,11.97 -413.22,20.08 -263.81,50.26 -529.33,84.52 -798.22,101.9 -85.67,5.61 -140.83,41.11 -225.46,45.24 -73.95,3.57 -147.95,4.89 -221.94,6.24 -154.05,2.8 -299.19,27.6 -455.09,23.61 -633.45,-16.35 -1232.49,-61.67 -1840.88,-252.33 -658.37,-206.37 -1282.48,-435.84 -1973.82,-512 -641.73,-70.49 -1285.93,4 -1893.17,222.26 -616.67,221.66 -1145.62,627.52 -1651.12,1034.5 -328.59,264.51 -644.15,548.66 -927.79,861.33z"/>
   <path class="fil10" d="M9.99 21384.97l0 287.11c78.67,-151.12 172.08,-295.31 272.66,-432.28 590.56,-804.33 1461.59,-1430.72 2391.75,-1781.44 686.04,-258.69 1463.31,-250.34 2180.62,-163.7 419.88,50.76 796.26,143.69 1188.76,294.64 33.49,12.87 68.32,26.67 104.04,40.99 25.22,8.05 49.44,16.81 70.22,22.04 369.11,91.95 699.08,142.7 1078.96,104.52 648.32,-65.07 1270.13,-261.54 1925.8,-276.27 1134.41,-25.65 2185.03,393.42 3130.09,984.29 456.23,285.24 870.99,637.37 1270.76,995.62 320.11,286.86 597.11,586.45 827.63,950.52 495.63,783.1 790.32,1690.39 903.66,2607.32 107.89,872.96 49.36,1826.29 -357.32,2621.36 -192.93,377.15 -459.14,715.22 -815.97,948.75 -418,273.51 -955.37,347.37 -1440.05,405.18 -506.98,60.49 -1023.94,79.39 -1516.74,223.11 -648.37,189.25 -1297.59,344.63 -1973.01,396.34 -633.98,48.51 -1275.87,-7.68 -1880.79,-208.48 -614.27,-204.05 -1186.79,-534.82 -1742.93,-860.2 -574.83,-336.37 -1162.92,-649.74 -1737.18,-985.94 -572.62,-335.27 -1095.59,-749.12 -1656.18,-1103.08 -536.72,-339.01 -1091.72,-645.23 -1530.19,-1113.7 -335.91,-358.81 -543.46,-855.3 -694.58,-1320.07l0 1305.13c225.58,346.51 502.01,662.9 804,941.59 428.27,395.2 913.21,715.06 1426.66,986.66 561.01,296.76 1085.62,675.78 1620.85,1016.32 846.23,538.46 1718.11,1055.34 2651.65,1423.96l6482.2 0c76.2,-19.58 152.18,-39.79 227.86,-60.61 536.38,-147.54 1096.97,-278.28 1580.13,-563.09 1571.93,-926.74 1206.27,-3109.3 981.31,-4611.11 -28.92,-193.11 -94.97,-388.37 -117.03,-578.76 -23.5,-202.84 -44.8,-405.94 -60.08,-609.65 -33.72,-450.06 95.86,-963.48 -93.88,-1388.15 -250.31,-560.33 -915.67,-885.8 -1422.07,-1171.21 -525.19,-295.82 -1019.79,-638.92 -1541.1,-940.84 -437.54,-253.31 -882.6,-446.77 -1377.18,-556.63 -619.73,-137.79 -1276.61,-209.74 -1910.96,-219.63 -307.37,-4.68 -622.7,8.45 -927.51,47.58 -200.52,25.77 -397.29,66.75 -596.21,96.69 -10.12,24.46 -32.92,43.83 -68.31,44.77 -126.2,3.44 -246.4,1.19 -364.9,-10.66 -184.85,-5.73 -367.04,-42.13 -543.7,-99.21 -84.2,-27.26 -164.52,-65.54 -243.47,-106.6 -147.47,-42.56 -295.78,-78.58 -454.76,-102.24 -664.25,-99.29 -1341.46,-6.15 -2008.69,-7.59 -303.5,-0.68 -594.57,-86.64 -899.02,-85.37 -325.2,1.11 -638.21,90.97 -922.82,245.4 -268.28,145.51 -483.29,382.41 -702.75,590.27 -234.01,221.8 -464.88,446.64 -687.23,680.24 -319.59,335.69 -604.07,702.22 -832.98,1096.12z"/>
  </g>
 </g>
</svg>
